<svg width="27" height="47" viewBox="0 0 27 47" fill="none" xmlns="http://www.w3.org/2000/svg">
<path d="M18.2206 46.0974C20.5084 44.8263 22.5988 43.3333 24.5487 41.5879C25.5469 40.6945 24.2911 38.8984 23.139 39.661C22.2354 40.259 21.3312 40.857 20.4276 41.4545C22.0606 37.1013 23.1774 32.4037 22.5952 27.9167C22.6152 27.9003 22.6366 27.886 22.6566 27.8696C28.1571 23.333 28.129 14.6917 24.2446 9.17522C19.6027 2.5829 7.89923 -2.46075 0.326085 1.88932C-0.150271 2.16277 0.134928 2.91615 0.677217 2.78581C7.71523 1.09966 16.2595 3.58979 21.1677 8.9948C25.0332 13.2518 26.1827 20.9507 22.0376 25.2804C21.6354 23.9264 21.0527 22.6021 20.2451 21.3259C18.6254 18.7647 15.7964 16.3374 12.5575 16.687C9.31194 17.0377 7.40345 20.2571 7.73823 23.3351C8.4272 29.6688 15.3129 31.4525 20.356 29.2624C20.6106 33.1423 19.5337 37.1979 18.1026 40.904C17.8429 39.6927 17.5137 38.4962 17.0982 37.3063C16.5876 35.8445 14.2324 36.4216 14.7486 37.8941C15.5439 40.1639 16.0658 42.4266 16.2825 44.8263C16.3111 45.1442 16.466 45.4585 16.6903 45.6936C16.9827 46.1853 17.5689 46.4598 18.2206 46.0974ZM10.4308 24.323C9.58436 22.1692 10.4119 19.0463 13.1928 19.0187C15.1417 18.9993 16.9214 20.6481 17.9508 22.135C18.9837 23.6269 19.6446 25.2165 20.0162 26.8602C16.7282 28.7518 11.9605 28.2146 10.4308 24.323Z" fill="black"/>
</svg>
