<svg xmlns="http://www.w3.org/2000/svg" width="21" height="30" fill="none"><g stroke="#fff" stroke-width="1.771" clip-path="url(#a)"><path d="M19.9 6.163a4.52 4.52 0 0 1-4.52 4.52h-4.637v-9.04h4.638a4.52 4.52 0 0 1 4.52 4.52ZM1.585 6.163a4.52 4.52 0 0 0 4.52 4.52h4.638v-9.04H6.105a4.52 4.52 0 0 0-4.52 4.52ZM1.585 15.204a4.52 4.52 0 0 0 4.52 4.52h4.638v-9.04H6.105a4.52 4.52 0 0 0-4.52 4.52ZM1.585 24.244c0 2.497 2.053 4.52 4.55 4.52 2.528 0 4.608-2.05 4.608-4.578v-4.462H6.105a4.52 4.52 0 0 0-4.52 4.52ZM10.743 15.204a4.52 4.52 0 0 0 4.52 4.52h.118a4.52 4.52 0 0 0 0-9.04h-.118a4.52 4.52 0 0 0-4.52 4.52Z"/></g><defs><clipPath id="a"><path fill="#fff" d="M.646.704H20.84v29H.646z"/></clipPath></defs></svg>