<svg xmlns="http://www.w3.org/2000/svg" width="723" height="723" fill="none"><g fill="#fff" clip-path="url(#a)" opacity=".95"><path d="m427.727 361.655-21.565-14.38a27.113 27.113 0 0 0-10.53-16.538 162.666 162.666 0 0 0 56.053-115.205 162.646 162.646 0 0 0-44.724-120.049 162.687 162.687 0 0 0-235.532 0 162.659 162.659 0 0 0-44.724 120.049 162.682 162.682 0 0 0 56.053 115.205 27.106 27.106 0 0 0-10.53 16.538l-21.565 14.38a81.33 81.33 0 0 0-55.552 24.793 81.337 81.337 0 0 0-22.82 56.392v126.525a9.037 9.037 0 0 0 9.037 9.037h415.725a9.036 9.036 0 0 0 9.038-9.037V442.84a81.335 81.335 0 0 0-22.82-56.392 81.327 81.327 0 0 0-55.552-24.793h.008ZM202.13 343.427h177.445a9.039 9.039 0 0 1 0 18.075h-180.75a9.038 9.038 0 0 1 0-18.075h3.305Zm212.201-63.262H243.816a44.881 44.881 0 0 1-29.819-11.455 44.888 44.888 0 0 1-14.654-28.383 292.56 292.56 0 0 0 116.96 24.357c38.95.012 77.509-7.75 113.418-22.828a144.382 144.382 0 0 1-15.4 38.309h.01Zm18.853-59.712a275.123 275.123 0 0 1-117.208 26.063 275.155 275.155 0 0 1-117.147-26.342v-48.657a45.043 45.043 0 0 1 44.998-44.99H408.66a143.692 143.692 0 0 1 25.144 81.338c0 4.228-.254 8.424-.613 12.588h-.007Zm-288.59-12.588a144.4 144.4 0 0 1 43.162-103.161A144.396 144.396 0 0 1 291.63 63.288a144.39 144.39 0 0 1 102.298 45.164H243.812a63.13 63.13 0 0 0-44.578 18.49 63.124 63.124 0 0 0-18.494 44.574v63.662-.004a63.128 63.128 0 0 0 18.494 44.574 63.128 63.128 0 0 0 44.578 18.491h158.1a144.965 144.965 0 0 1-28.525 27.112H204.98a144.677 144.677 0 0 1-60.399-117.487l.013.001ZM90.369 442.84a63.38 63.38 0 0 1 15.461-41.399 63.39 63.39 0 0 1 38.764-21.223v180.11H90.369V442.84Zm72.3-67.467 13.133-8.759v.004a27.026 27.026 0 0 0 23.017 12.959h180.75a27.025 27.025 0 0 0 23.017-12.959l13.133 8.755v184.954h-18.075V453.302a55.718 55.718 0 0 0-16.316-39.329 55.72 55.72 0 0 0-39.329-16.316h-105.61a55.718 55.718 0 0 0-39.329 16.316 55.715 55.715 0 0 0-16.316 39.329v107.025h-18.075V375.373Zm63.262 184.954v-27.112h126.525v27.112H225.931Zm144.6 0v-36.15a9.043 9.043 0 0 0-2.646-6.391 9.043 9.043 0 0 0-6.391-2.646h-144.6a9.038 9.038 0 0 0-9.038 9.037v36.15h-9.037V453.302a37.602 37.602 0 0 1 11.018-26.551 37.605 37.605 0 0 1 26.552-11.019h105.61a37.599 37.599 0 0 1 26.551 11.019 37.601 37.601 0 0 1 11.019 26.551v107.025h-9.038Zm117.488 0h-54.225v-180.11a63.39 63.39 0 0 1 38.764 21.223 63.39 63.39 0 0 1 15.461 41.399v117.488Z"/><path d="M641.663 0H361.5a9.038 9.038 0 0 0-9.037 9.037v36.15h18.075V18.076h262.087v424.763h-27.112a9.036 9.036 0 0 0-7.404 3.857l-46.821 66.89v-61.71a9.04 9.04 0 0 0-9.038-9.037h-18.075v18.075h9.038v81.337a9.042 9.042 0 0 0 6.322 8.614 9.046 9.046 0 0 0 10.119-3.433l60.567-86.519h31.442a9.04 9.04 0 0 0 9.037-9.037V9.037A9.038 9.038 0 0 0 641.663 0Z"/><path d="M406.688 54.225h45.187V72.3h-45.187V54.225ZM469.95 54.225h126.525V72.3H469.95V54.225ZM451.875 108.45h90.375v18.075h-90.375V108.45ZM560.325 108.45h36.15v18.075h-36.15V108.45ZM469.95 162.675h126.525v18.075H469.95v-18.075ZM469.95 216.9h18.075v18.075H469.95V216.9ZM506.1 216.9h90.375v18.075H506.1V216.9ZM460.913 271.125h99.412V289.2h-99.412v-18.075ZM578.4 271.125h18.075V289.2H578.4v-18.075ZM442.838 325.35h117.487v18.075H442.838V325.35ZM253.05 433.8a36.165 36.165 0 0 0-25.563 10.587A36.165 36.165 0 0 0 216.9 469.95a36.165 36.165 0 0 0 10.587 25.563A36.165 36.165 0 0 0 253.05 506.1a36.163 36.163 0 0 0 25.563-10.587A36.165 36.165 0 0 0 289.2 469.95a36.165 36.165 0 0 0-10.587-25.563A36.165 36.165 0 0 0 253.05 433.8Zm0 54.225a18.077 18.077 0 0 1-18.075-18.075 18.077 18.077 0 0 1 36.15 0 18.08 18.08 0 0 1-5.293 12.782 18.08 18.08 0 0 1-12.782 5.293ZM298.238 442.838h54.225v18.075h-54.225v-18.075ZM298.238 478.987h54.225v18.075h-54.225v-18.075Z"/></g><defs><clipPath id="a"><path fill="#fff" d="M0 0h723v723H0z"/></clipPath></defs></svg>